<svg width="9" height="12" viewBox="0 0 9 12" fill="none" xmlns="http://www.w3.org/2000/svg">
<path d="M4.33333 7.73132C3.4 8.2567 2.58333 8.66997 2 8.38812C2.58333 8.71646 3.81161 9.11407 4.33333 9.70148C5.20833 10.6867 5.5 11.3433 5.5 12C5.5 12 6.24035 10.4214 6.66667 9.70148C7.13333 8.91342 8.41667 8.49755 9 8.38812C8.51389 8.38812 7.18842 8.02484 6.66667 7.73114C5.5 7.07442 5.5 4.44781 5.5 5.10453C5.5 5.76125 5.5 7.0746 4.33333 7.73132Z" fill="white"/>
<path d="M1.66667 3.95095C1 4.32621 0.416667 4.62141 0 4.42009C0.416667 4.65461 1.29401 4.93862 1.66667 5.3582C2.29167 6.06189 2.5 6.53091 2.5 7C2.5 7 3.02882 5.87244 3.33333 5.3582C3.66667 4.7953 4.58333 4.49825 5 4.42009C4.65278 4.42009 3.70601 4.1606 3.33333 3.95082C2.5 3.48173 2.5 1.60558 2.5 2.07466C2.5 2.54375 2.5 3.48186 1.66667 3.95095Z" fill="white"/>
<path d="M5 1.17057C4.6 1.39573 4.25 1.57284 4 1.45205C4.25 1.59277 4.7764 1.76317 5 2.01492C5.375 2.43714 5.5 2.71855 5.5 3C5.5 3 5.81729 2.32346 6 2.01492C6.2 1.67718 6.75 1.49895 7 1.45205C6.79167 1.45205 6.22361 1.29636 6 1.17049C5.5 0.889037 5.5 -0.236654 5.5 0.0447967C5.5 0.326248 5.5 0.889116 5 1.17057Z" fill="white"/>
</svg>
