<svg width="16" height="22" viewBox="0 0 16 22" fill="none" xmlns="http://www.w3.org/2000/svg">
<path d="M7.47214 13.8852C5.91659 14.7608 4.55547 15.4496 3.58325 14.9799C4.55547 15.5271 6.6026 16.1898 7.47214 17.1688C8.93047 18.8108 9.41659 19.9051 9.41659 20.9997C9.41659 20.9997 10.6505 18.3687 11.361 17.1688C12.1388 15.8554 14.2777 15.1623 15.2499 14.9799C14.4397 14.9799 12.2306 14.3744 11.361 13.8849C9.41659 12.7904 9.41659 8.41268 9.41659 9.50722C9.41659 10.6017 9.41659 12.7907 7.47214 13.8852Z" fill="white" stroke="#52607A" stroke-opacity="0.8"/>
<path d="M3.02778 7.58458C1.91667 8.21003 0.944444 8.70202 0.25 8.36649C0.944444 8.75736 2.40668 9.23071 3.02778 9.93001C4.06944 11.1028 4.41667 11.8845 4.41667 12.6663C4.41667 12.6663 5.29803 10.7871 5.80556 9.93001C6.36111 8.99184 7.88889 8.49676 8.58333 8.36649C8.00463 8.36649 6.42669 7.934 5.80556 7.58437C4.41667 6.80255 4.41667 3.67563 4.41667 4.45744C4.41667 5.23925 4.41667 6.80277 3.02778 7.58458Z" fill="white" stroke="#52607A" stroke-opacity="0.8"/>
<path d="M8.58341 2.95095C7.91675 3.32621 7.33341 3.62141 6.91675 3.42009C7.33341 3.65461 8.21075 3.93862 8.58341 4.3582C9.20841 5.06189 9.41675 5.53091 9.41675 6C9.41675 6 9.94557 4.87244 10.2501 4.3582C10.5834 3.7953 11.5001 3.49825 11.9167 3.42009C11.5695 3.42009 10.6228 3.1606 10.2501 2.95082C9.41675 2.48173 9.41675 0.605576 9.41675 1.07466C9.41675 1.54375 9.41675 2.48186 8.58341 2.95095Z" fill="white" stroke="#52607A" stroke-opacity="0.8"/>
</svg>
