<svg width="39" height="51" viewBox="0 0 39 51" fill="none" xmlns="http://www.w3.org/2000/svg">
<path d="M18.4167 32.8581C14.45 35.091 10.9792 36.8474 8.5 35.6495C10.9792 37.0449 16.1993 38.7348 18.4167 41.2313C22.1354 45.4183 23.375 48.2089 23.375 51C23.375 51 26.5215 44.291 28.3333 41.2313C30.3167 37.882 35.7708 36.1146 38.25 35.6495C36.184 35.6495 30.5508 34.1056 28.3333 32.8574C23.375 30.0663 23.375 18.9032 23.375 21.6942C23.375 24.4853 23.375 30.0671 18.4167 32.8581Z" fill="white"/>
<path d="M7.08333 16.7915C4.25 18.3864 1.77083 19.641 0 18.7854C1.77083 19.7821 5.49952 20.9891 7.08333 22.7724C9.73958 25.763 10.625 27.7564 10.625 29.75C10.625 29.75 12.8725 24.9579 14.1667 22.7724C15.5833 20.38 19.4792 19.1176 21.25 18.7854C19.7743 18.7854 15.7505 17.6825 14.1667 16.791C10.625 14.7973 10.625 6.8237 10.625 8.81731C10.625 10.8109 10.625 14.7979 7.08333 16.7915Z" fill="white"/>
<path d="M21.25 4.97491C19.55 5.93184 18.0625 6.68459 17 6.17122C18.0625 6.76926 20.2997 7.49348 21.25 8.56341C22.8438 10.3578 23.375 11.5538 23.375 12.75C23.375 12.75 24.7235 9.87471 25.5 8.56341C26.35 7.12801 28.6875 6.37054 29.75 6.17122C28.8646 6.17122 26.4503 5.50952 25.5 4.97458C23.375 3.77841 23.375 -1.00578 23.375 0.190386C23.375 1.38655 23.375 3.77874 21.25 4.97491Z" fill="white"/>
</svg>
